<?xml version='1.0' encoding='utf-8'?>
<!DOCTYPE svg PUBLIC '-//W3C//DTD SVG 1.1//EN' 'http://www.w3.org/Graphics/SVG/1.1/DTD/svg11.dtd'>
<svg version="1.1" xmlns="http://www.w3.org/2000/svg" viewBox="0 0 512 512" xmlns:xlink="http://www.w3.org/1999/xlink" enable-background="new 0 0 512 512">
  <g>
    <g>
      <path d="m499.5,230.1c-14.3-134.3-135.1-232.1-269.5-217.7-73,7.8-138,47.4-178.5,108.7-6.2,9.4-3.6,22.1 5.8,28.3 9.4,6.2 22.1,3.6 28.3-5.8 33.8-51.1 88-84.1 148.8-90.5 111.9-11.9 212.6,69.4 224.5,181.3 5.8,54.2-9.9,107.4-44.2,149.9-34.3,42.4-83,69-137.2,74.7-74,8-146.6-25.6-188.9-86l37.7,8.1c11.1,2.3 21.9-4.6 24.3-15.7 2.4-11-4.6-21.9-15.7-24.3l-81.5-17.5c-11-2.4-21.9,4.6-24.3,15.7l-17.5,81.5c-2.4,11 4.7,21.7 15.7,24.3 12.4,2.9 22.2-6.1 24.3-15.7l6.3-29.4c46.1,63.3 120.2,101 198.3,101 8.5,0 17.1-0.4 25.7-1.4 65.1-6.9 123.6-38.8 164.7-89.7 41-50.8 59.8-114.7 52.9-179.8z"/>
      <path d="m271.8,140.3c-11.3,0-20.4,9.1-20.4,20.4v95.3c0,5.4 2.2,10.6 6,14.4l95.3,95.3c9.5,10.7 24.9,4 28.9,0 8-8 8-20.9 0-28.9l-89.3-89.3v-86.8c-0.1-11.2-9.2-20.4-20.5-20.4z"/>
    </g>
  </g>
</svg>
