<?xml version="1.0" encoding="iso-8859-1"?>
<!-- Generator: Adobe Illustrator 17.1.0, SVG Export Plug-In . SVG Version: 6.00 Build 0)  -->
<!DOCTYPE svg PUBLIC "-//W3C//DTD SVG 1.1//EN" "http://www.w3.org/Graphics/SVG/1.1/DTD/svg11.dtd">
<svg version="1.1" id="Capa_1" xmlns="http://www.w3.org/2000/svg" xmlns:xlink="http://www.w3.org/1999/xlink" x="0px" y="0px"
	 viewBox="0 0 428.102 428.102" style="enable-background:new 0 0 428.102 428.102;" xml:space="preserve">
<path id="XMLID_2055_" d="M185.53,73.51c0-18.813-15.306-34.119-34.12-34.119s-34.12,15.306-34.12,34.119
	c0,18.813,15.306,34.119,34.12,34.119S185.53,92.323,185.53,73.51z M135.291,73.51c0-8.888,7.231-16.119,16.12-16.119
	s16.12,7.231,16.12,16.119c0,8.888-7.231,16.119-16.12,16.119S135.291,82.398,135.291,73.51z M126.916,192.858
	c3.546,7.436,8.905,18.672,24.495,18.672c15.591,0,20.949-11.238,24.495-18.674c0.459-0.962,9.37-18.554,9.37-18.554
	c19.181-37.694,39.645-79.677,39.645-100.792C224.92,32.977,191.944,0,151.411,0C110.877,0,77.9,32.977,77.9,73.51
	c0,21.111,20.464,63.096,39.645,100.791C117.545,174.301,126.457,191.896,126.916,192.858z M151.411,18
	c30.608,0,55.509,24.902,55.509,55.51c0,18.567-25.455,68.589-37.688,92.63c0,0-9.058,17.887-9.574,18.97
	c-3.603,7.555-4.45,8.421-8.247,8.421s-4.645-0.866-8.248-8.42c-0.517-1.083-9.575-18.971-9.575-18.971
	C121.355,142.098,95.9,92.073,95.9,73.51C95.9,42.902,120.802,18,151.411,18z M410.655,384.763l-0.108-306.728
	c0-0.15-0.004-0.301-0.012-0.452c-0.91-17.979-13.175-33.182-30.52-37.829l-92.718-24.844c-7.014-1.877-14.736-1.877-21.746,0
	l-24.8,6.646c-4.802,1.287-7.65,6.222-6.364,11.023s6.229,7.647,11.022,6.364l22.016-5.899v83.328
	c-0.628,0.137-1.253,0.289-1.874,0.455l-36.715,9.838c-4.802,1.287-7.65,6.222-6.364,11.023s6.222,7.65,11.022,6.364l33.931-9.092
	v84.059c-0.628,0.137-1.253,0.289-1.874,0.456l-105.141,28.173v-4.019c0-4.971-4.029-9-9-9s-9,4.029-9,9v4.027L35.395,219.052
	v-84.086l33.929,9.09c4.801,1.286,9.737-1.563,11.022-6.364c1.287-4.801-1.563-9.736-6.364-11.022l-38.587-10.338V33.049
	l22.014,5.898c4.799,1.285,9.736-1.563,11.022-6.364c1.287-4.801-1.563-9.736-6.364-11.022l-33.343-8.934
	c-2.703-0.724-5.589-0.15-7.808,1.553c-2.22,1.703-3.521,4.342-3.521,7.14v101.724c-0.003,0.133-0.003,0.265,0,0.397V225.77
	c-0.003,0.133-0.003,0.265,0,0.397v102.592c0,4.08,2.744,7.649,6.686,8.697l125.016,33.257c1.521,0.405,3.122,0.403,4.643-0.004
	L270.21,339.5c1.844-0.494,3.774-0.76,5.712-0.799c0.334,0.018,0.675,0.018,1.007,0c1.937,0.04,3.867,0.306,5.712,0.799
	l92.826,24.882c9.861,2.644,16.548,11.28,17.189,20.941c0.003,0.233,0.015,0.465,0.035,0.693c0.082,2.254-0.166,4.558-0.779,6.847
	c-3.262,12.172-16.307,19.704-28.485,16.442l-76.732-20.534v-14.423l77.116,21.271c4.791,1.321,9.747-1.492,11.068-6.283
	c1.322-4.792-1.491-9.748-6.282-11.069l-88.51-24.413c-2.704-0.746-5.608-0.187-7.846,1.516c-2.234,1.702-3.547,4.351-3.547,7.16
	v33.149c0,4.075,2.737,7.641,6.674,8.694l83.404,22.32c3.561,0.953,7.138,1.408,10.66,1.408
	c18.217-0.001,34.934-12.172,39.866-30.58C410.443,393.253,410.87,388.957,410.655,384.763z M142.411,350.308L35.395,321.84v-84.156
	l107.016,28.603V350.308z M267.426,321.659c-0.63,0.137-1.255,0.288-1.874,0.454l-105.141,28.173v-84.004l107.015-28.675V321.659z
	 M285.426,33.044l89.932,24.098c9.556,2.56,16.598,11.237,17.189,21.145l0.023,66.788L287.3,116.827
	c-0.621-0.167-1.246-0.318-1.874-0.455V33.044z M285.426,134.961l107.151,28.752l0.029,84.017l-105.304-28.256
	c-0.623-0.167-1.248-0.319-1.877-0.456V134.961z M380.127,346.996l-92.831-24.884c-0.618-0.166-1.242-0.316-1.87-0.453v-84.052
	l107.188,28.761l0.03,86.356C388.921,350.19,384.718,348.227,380.127,346.996z"/>
<g>
</g>
<g>
</g>
<g>
</g>
<g>
</g>
<g>
</g>
<g>
</g>
<g>
</g>
<g>
</g>
<g>
</g>
<g>
</g>
<g>
</g>
<g>
</g>
<g>
</g>
<g>
</g>
<g>
</g>
</svg>
